<svg xmlns="http://www.w3.org/2000/svg" width="149" height="44" viewBox="0 0 149 44"><defs><linearGradient id="a" x1="91.488%" x2="-38.352%" y1="4.948%" y2="71.907%"><stop offset="0%" stop-color="#00A0FF"/><stop offset="1%" stop-color="#00A1FF"/><stop offset="26%" stop-color="#00BEFF"/><stop offset="51%" stop-color="#00D2FF"/><stop offset="76%" stop-color="#00DFFF"/><stop offset="100%" stop-color="#00E3FF"/></linearGradient><linearGradient id="b" x1="107.685%" x2="-130.64%" y1="50%" y2="50%"><stop offset="0%" stop-color="#FFE000"/><stop offset="41%" stop-color="#FFBD00"/><stop offset="78%" stop-color="#FFA500"/><stop offset="100%" stop-color="#FF9C00"/></linearGradient><linearGradient id="c" x1="86.219%" x2="-50.15%" y1="17.877%" y2="194.703%"><stop offset="0%" stop-color="#FF3A44"/><stop offset="100%" stop-color="#C31162"/></linearGradient><linearGradient id="d" x1="-18.754%" x2="42.121%" y1="-54.052%" y2="24.917%"><stop offset="0%" stop-color="#32A071"/><stop offset="7%" stop-color="#2DA771"/><stop offset="48%" stop-color="#15CF74"/><stop offset="80%" stop-color="#06E775"/><stop offset="100%" stop-color="#00F076"/></linearGradient></defs><g fill="none"><rect width="149" height="44" fill="#000" rx="5.5"/><path fill="#A6A6A6" d="M143.481.88a4.628 4.628 0 0 1 4.636 4.62v33a4.628 4.628 0 0 1-4.636 4.62H5.52A4.628 4.628 0 0 1 .883 38.5v-33A4.628 4.628 0 0 1 5.519.88H143.48zm0-.88H5.52C2.47 0 0 2.462 0 5.5v33C0 41.538 2.47 44 5.519 44H143.48c3.048 0 5.519-2.462 5.519-5.5v-33c0-3.038-2.47-5.5-5.519-5.5z"/><path fill="#FFF" d="M75.206 23.925a4.683 4.683 0 0 0-4.668 4.69c.008 2.579 2.11 4.664 4.698 4.66a4.682 4.682 0 0 0 4.683-4.675 4.601 4.601 0 0 0-1.362-3.334 4.633 4.633 0 0 0-3.35-1.341zm0 7.513a2.849 2.849 0 0 1-2.768-1.608 2.83 2.83 0 0 1 .485-3.156 2.854 2.854 0 0 1 3.123-.71 2.838 2.838 0 0 1 1.81 2.636 2.7 2.7 0 0 1-.725 1.976 2.72 2.72 0 0 1-1.925.862zm-10.275-7.513c-2.59.006-4.684 2.102-4.68 4.682.004 2.58 2.105 4.67 4.695 4.668 2.589-.002 4.687-2.095 4.687-4.675a4.601 4.601 0 0 0-1.362-3.334 4.633 4.633 0 0 0-3.351-1.341h.01zm0 7.513a2.85 2.85 0 0 1-2.776-1.6 2.83 2.83 0 0 1 .477-3.159 2.854 2.854 0 0 1 3.125-.715 2.838 2.838 0 0 1 1.812 2.636 2.7 2.7 0 0 1-.724 1.976 2.72 2.72 0 0 1-1.925.862h.01zm-12.24-6.072v1.98h4.768a4.14 4.14 0 0 1-1.104 2.497 4.887 4.887 0 0 1-3.675 1.452c-2.926 0-5.298-2.364-5.298-5.28 0-2.916 2.372-5.28 5.298-5.28a5.086 5.086 0 0 1 3.609 1.419l1.402-1.397a6.954 6.954 0 0 0-5-2.057 7.301 7.301 0 0 0-6.554 3.549 7.25 7.25 0 0 0 0 7.433 7.301 7.301 0 0 0 6.554 3.549 6.634 6.634 0 0 0 5.088-2.035 6.587 6.587 0 0 0 1.722-4.642 6.436 6.436 0 0 0-.11-1.243l-6.7.055zm50.009 1.54a4.413 4.413 0 0 0-4.018-2.981 4.422 4.422 0 0 0-3.223 1.384 4.391 4.391 0 0 0-1.192 3.291 4.568 4.568 0 0 0 1.333 3.324 4.6 4.6 0 0 0 3.325 1.351 4.673 4.673 0 0 0 3.907-2.068l-1.6-1.1a2.684 2.684 0 0 1-2.307 1.298 2.385 2.385 0 0 1-2.274-1.419l6.28-2.585-.231-.495zm-6.402 1.562a2.558 2.558 0 0 1 .65-1.877 2.575 2.575 0 0 1 1.8-.851 1.822 1.822 0 0 1 1.744.99l-4.194 1.738zM91.2 33h2.064V19.25H91.2V33zm-3.377-8.03h-.078a3.316 3.316 0 0 0-2.472-1.1 4.693 4.693 0 0 0-4.474 4.68c0 2.5 1.969 4.56 4.474 4.681a3.205 3.205 0 0 0 2.472-1.1h.067v.671c0 1.793-.96 2.75-2.506 2.75a2.593 2.593 0 0 1-2.362-1.661l-1.799.748a4.47 4.47 0 0 0 4.161 2.761c2.417 0 4.415-1.419 4.415-4.873V24.2h-1.898v.77zm-2.362 6.468a2.853 2.853 0 0 1-2.608-2.838 2.853 2.853 0 0 1 2.608-2.838 2.652 2.652 0 0 1 1.853.893c.471.534.707 1.235.652 1.945a2.61 2.61 0 0 1-.649 1.956 2.63 2.63 0 0 1-1.867.882h.01zm26.908-12.188h-4.933V33h2.063v-5.214h2.881a4.298 4.298 0 0 0 3.974-2.04 4.267 4.267 0 0 0 0-4.455 4.298 4.298 0 0 0-3.974-2.041h-.01zm0 6.6h-2.88v-4.686h2.924a2.363 2.363 0 0 1 2.368 2.36 2.363 2.363 0 0 1-2.368 2.359l-.044-.033zm12.726-1.98a3.865 3.865 0 0 0-3.676 2.101l1.833.759a1.955 1.955 0 0 1 1.876-1.012 1.991 1.991 0 0 1 1.476.424c.415.333.679.819.731 1.347v.143a4.57 4.57 0 0 0-2.152-.528c-1.976 0-3.973 1.1-3.973 3.091.04.858.425 1.663 1.07 2.233.644.57 1.492.855 2.351.792a2.906 2.906 0 0 0 2.65-1.32h.065V33h1.987v-5.291c0-2.409-1.832-3.806-4.183-3.806l-.055-.033zm-.254 7.535c-.673 0-1.611-.341-1.611-1.166 0-1.1 1.17-1.463 2.207-1.463a3.674 3.674 0 0 1 1.876.462 2.491 2.491 0 0 1-2.417 2.2l-.055-.033zm11.732-7.205l-2.362 5.962h-.066l-2.45-5.962h-2.207l3.675 8.338-2.097 4.631h2.152l5.651-12.969h-2.296zM118.02 33h2.064V19.25h-2.064V33z"/><path fill="#FFF" stroke="#FFF" stroke-width=".5" d="M52.338 11.264a2.975 2.975 0 0 1-.828 2.2 3.217 3.217 0 0 1-2.428.979 3.477 3.477 0 0 1-3.188-2.146 3.456 3.456 0 0 1 .749-3.761 3.317 3.317 0 0 1 2.439-.99c.466-.002.928.092 1.357.275.4.16.755.413 1.038.737l-.585.583a2.21 2.21 0 0 0-1.81-.781 2.565 2.565 0 0 0-1.85.774A2.547 2.547 0 0 0 46.51 11a2.596 2.596 0 0 0 1.57 2.42 2.611 2.611 0 0 0 2.845-.517c.34-.367.535-.843.552-1.342h-2.395v-.792h3.211c.03.163.045.329.045.495zm5.055-2.75h-2.98v2.09h2.715v.792h-2.715v2.09h2.98v.814H53.53V7.7h3.863v.814zm3.62 5.786h-.85V8.514h-1.854V7.7h4.602v.814h-1.898V14.3zm5.143 0V7.7h.85v6.6h-.85zm4.625 0h-.85V8.514h-1.855V7.7h4.548v.814H70.78V14.3zm10.463-.858a3.452 3.452 0 0 1-4.857 0 3.555 3.555 0 0 1 0-4.895 3.427 3.427 0 0 1 4.857 0 3.544 3.544 0 0 1 0 4.895zm-4.228-.55a2.556 2.556 0 0 0 3.599 0 2.809 2.809 0 0 0 0-3.784 2.556 2.556 0 0 0-3.599 0 2.809 2.809 0 0 0 0 3.784zm6.402 1.408V7.7h1.037l3.223 5.137V7.7h.85v6.6h-.883L84.28 8.921V14.3h-.861z"/><path fill="url(#a)" d="M1.59.594c-.36.43-.542.981-.508 1.54v24.332c-.034.559.148 1.11.507 1.54l.078.077L15.34 14.465v-.319L1.667.517l-.078.077z" transform="translate(9.933 7.7)"/><path fill="url(#b)" d="M19.867 19.008l-4.526-4.543v-.319l4.526-4.554.099.055 5.42 3.069c1.544.869 1.544 2.299 0 3.179l-5.398 3.058-.121.055z" transform="translate(9.933 7.7)"/><path fill="url(#c)" d="M20 18.942L15.34 14.3 1.59 28.006c.65.57 1.614.597 2.296.066l16.125-9.13" transform="translate(9.933 7.7)"/><path fill="url(#d)" d="M20 9.658L3.873.528a1.804 1.804 0 0 0-2.296.066L15.341 14.3 20 9.658z" transform="translate(9.933 7.7)"/><path fill="#000" d="M29.8 26.543l-15.993 9.075a1.848 1.848 0 0 1-2.207 0l-.077.077.077.077a1.837 1.837 0 0 0 2.207 0l16.125-9.13-.132-.099z" opacity=".2"/><path fill="#000" d="M11.523 35.552a2.195 2.195 0 0 1-.508-1.54v.165c-.034.559.148 1.11.508 1.54l.077-.077-.077-.088zM35.319 23.43L29.8 26.543l.1.099 5.419-3.058A1.925 1.925 0 0 0 36.422 22a2.047 2.047 0 0 1-1.103 1.43z" opacity=".12"/><path fill="#FFF" d="M13.807 8.382L35.32 20.57c.57.28.977.809 1.103 1.43a1.925 1.925 0 0 0-1.103-1.584L13.807 8.228c-1.545-.869-2.803-.143-2.803 1.617v.165c.033-1.771 1.27-2.497 2.803-1.628z" opacity=".25"/></g></svg>